<svg width="40" height="40" viewBox="0 0 40 40" fill="none" xmlns="http://www.w3.org/2000/svg">
  <!-- Background circle with gradient -->
  <defs>
    <linearGradient id="logoGradient" x1="0%" y1="0%" x2="100%" y2="100%">
      <stop offset="0%" style="stop-color:#3B82F6;stop-opacity:1" />
      <stop offset="100%" style="stop-color:#1E40AF;stop-opacity:1" />
    </linearGradient>
    <filter id="shadow" x="-20%" y="-20%" width="140%" height="140%">
      <feDropShadow dx="0" dy="2" stdDeviation="3" flood-color="#000000" flood-opacity="0.1"/>
    </filter>
  </defs>
  
  <!-- Main circle -->
  <circle cx="20" cy="20" r="18" fill="url(#logoGradient)" filter="url(#shadow)"/>
  
  <!-- Seat rows representation -->
  <g fill="white" opacity="0.9">
    <!-- Top row -->
    <rect x="8" y="10" width="3" height="2" rx="1"/>
    <rect x="12" y="10" width="3" height="2" rx="1"/>
    <rect x="16" y="10" width="3" height="2" rx="1"/>
    <rect x="20" y="10" width="3" height="2" rx="1"/>
    <rect x="24" y="10" width="3" height="2" rx="1"/>
    <rect x="28" y="10" width="3" height="2" rx="1"/>
    
    <!-- Middle row -->
    <rect x="8" y="15" width="3" height="2" rx="1"/>
    <rect x="12" y="15" width="3" height="2" rx="1"/>
    <rect x="16" y="15" width="3" height="2" rx="1"/>
    <rect x="20" y="15" width="3" height="2" rx="1"/>
    <rect x="24" y="15" width="3" height="2" rx="1"/>
    <rect x="28" y="15" width="3" height="2" rx="1"/>
    
    <!-- Center podium -->
    <rect x="17" y="20" width="6" height="3" rx="1" fill="white" opacity="1"/>
    
    <!-- Bottom row -->
    <rect x="8" y="26" width="3" height="2" rx="1"/>
    <rect x="12" y="26" width="3" height="2" rx="1"/>
    <rect x="16" y="26" width="3" height="2" rx="1"/>
    <rect x="20" y="26" width="3" height="2" rx="1"/>
    <rect x="24" y="26" width="3" height="2" rx="1"/>
    <rect x="28" y="26" width="3" height="2" rx="1"/>
  </g>
  
  <!-- Central flow lines -->
  <g stroke="white" stroke-width="1" fill="none" opacity="0.6">
    <path d="M10 20 Q20 18 30 20" stroke-linecap="round"/>
    <path d="M10 22 Q20 24 30 22" stroke-linecap="round"/>
  </g>
</svg>